<!-- Generator: Adobe Illustrator 19.2.1, SVG Export Plug-In  -->
<svg version="1.1"
	 xmlns="http://www.w3.org/2000/svg" xmlns:xlink="http://www.w3.org/1999/xlink" xmlns:a="http://ns.adobe.com/AdobeSVGViewerExtensions/3.0/"
	 x="0px" y="0px" width="485.682px" height="504.088px" viewBox="0 0 485.682 504.088"
	 style="enable-background:new 0 0 485.682 504.088;" xml:space="preserve">
<style type="text/css">
	.st0{fill:#F7C332;}
	.st1{fill:#59AC43;}
	.st2{opacity:0.2;fill:#050305;}
	.st3{fill:#E7404F;}
	.st4{fill:#2B78BD;}
</style>
<defs>
</defs>
<g>
	<path class="st0" d="M0,114.85v313.937c0,7.116,4.683,13.358,11.446,15.256l211.871,59.461c9.943,2.791,19.773-4.794,19.773-15.256
		V169.738c0-7.233-4.835-13.547-11.746-15.337L19.473,99.513C9.602,96.956,0,104.518,0,114.85z"/>
	<path class="st1" d="M485.682,114.85v313.937c0,7.116-4.673,13.358-11.423,15.256l-211.435,59.461
		c-9.923,2.791-19.733-4.794-19.733-15.256V169.738c0-7.233,4.825-13.547,11.722-15.337l211.435-54.887
		C476.099,96.956,485.682,104.518,485.682,114.85z"/>
	<path class="st2" d="M107.124,135.363v249.12c0,0,82.27,1.371,122.293,97.936c9.748,23.52,14.618,11.585,14.618,11.585
		l-1.078-235.537C242.957,258.468,238.231,141.068,107.124,135.363z"/>
	<path class="st2" d="M380.704,135.363v249.12c0,0-82.1,1.371-122.041,97.936c-9.728,23.52-14.588,11.585-14.588,11.585
		l1.076-235.537C245.15,258.468,249.867,141.068,380.704,135.363z"/>
	<path class="st3" d="M398.403,0v343.488c0,0-92.557,1.891-137.586,135.035c-10.967,32.429-17.042,15.974-17.042,15.974
		l-0.686-324.759C243.088,169.738,250.901,7.866,398.403,0z"/>
	<path class="st4" d="M89.425,0v343.488c0,0,92.748,1.891,137.869,135.035c10.99,32.429,16.48,15.974,16.48,15.974l-0.686-324.759
		C243.088,169.738,237.231,7.866,89.425,0z"/>
</g>
</svg>